<svg xmlns="http://www.w3.org/2000/svg" viewBox="4 2 100 100" preserveAspectRatio="xMidYMid" width="100%" height="100%" style="shape-rendering: auto; display: block; background: transparent;" xmlns:xlink="http://www.w3.org/1999/xlink"><g><g transform="rotate(0 50 50)">
  <rect fill="#1e212d" height="10" width="5" ry="2.5" rx="2.5" y="25" x="47.5">
    <animate repeatCount="indefinite" begin="-1.8s" dur="2s" keyTimes="0;1" values="1;0" attributeName="opacity"></animate>
  </rect>
</g><g transform="rotate(36 50 50)">
  <rect fill="#1e212d" height="10" width="5" ry="2.5" rx="2.5" y="25" x="47.5">
    <animate repeatCount="indefinite" begin="-1.6s" dur="2s" keyTimes="0;1" values="1;0" attributeName="opacity"></animate>
  </rect>
</g><g transform="rotate(72 50 50)">
  <rect fill="#1e212d" height="10" width="5" ry="2.5" rx="2.5" y="25" x="47.5">
    <animate repeatCount="indefinite" begin="-1.4s" dur="2s" keyTimes="0;1" values="1;0" attributeName="opacity"></animate>
  </rect>
</g><g transform="rotate(108 50 50)">
  <rect fill="#1e212d" height="10" width="5" ry="2.5" rx="2.5" y="25" x="47.5">
    <animate repeatCount="indefinite" begin="-1.2s" dur="2s" keyTimes="0;1" values="1;0" attributeName="opacity"></animate>
  </rect>
</g><g transform="rotate(144 50 50)">
  <rect fill="#1e212d" height="10" width="5" ry="2.5" rx="2.5" y="25" x="47.5">
    <animate repeatCount="indefinite" begin="-1s" dur="2s" keyTimes="0;1" values="1;0" attributeName="opacity"></animate>
  </rect>
</g><g transform="rotate(180 50 50)">
  <rect fill="#1e212d" height="10" width="5" ry="2.5" rx="2.5" y="25" x="47.5">
    <animate repeatCount="indefinite" begin="-0.8s" dur="2s" keyTimes="0;1" values="1;0" attributeName="opacity"></animate>
  </rect>
</g><g transform="rotate(216 50 50)">
  <rect fill="#1e212d" height="10" width="5" ry="2.5" rx="2.5" y="25" x="47.5">
    <animate repeatCount="indefinite" begin="-0.6s" dur="2s" keyTimes="0;1" values="1;0" attributeName="opacity"></animate>
  </rect>
</g><g transform="rotate(252 50 50)">
  <rect fill="#1e212d" height="10" width="5" ry="2.5" rx="2.5" y="25" x="47.5">
    <animate repeatCount="indefinite" begin="-0.4s" dur="2s" keyTimes="0;1" values="1;0" attributeName="opacity"></animate>
  </rect>
</g><g transform="rotate(288 50 50)">
  <rect fill="#1e212d" height="10" width="5" ry="2.5" rx="2.5" y="25" x="47.5">
    <animate repeatCount="indefinite" begin="-0.2s" dur="2s" keyTimes="0;1" values="1;0" attributeName="opacity"></animate>
  </rect>
</g><g transform="rotate(324 50 50)">
  <rect fill="#1e212d" height="10" width="5" ry="2.5" rx="2.5" y="25" x="47.5">
    <animate repeatCount="indefinite" begin="0s" dur="2s" keyTimes="0;1" values="1;0" attributeName="opacity"></animate>
  </rect>
</g><g></g></g><!-- [ldio] generated by https://loading.io --></svg>